<svg preserveAspectRatio="none" width="100%" height="100%" overflow="visible" style="display: block;" viewBox="0 0 19.5 5.5" fill="none" xmlns="http://www.w3.org/2000/svg">
<g id="Vector">
<path fill-rule="evenodd" clip-rule="evenodd" d="M0 2.75C0 1.23122 1.23122 0 2.75 0C4.26878 0 5.5 1.23122 5.5 2.75C5.5 4.26878 4.26878 5.5 2.75 5.5C1.23122 5.5 0 4.26878 0 2.75ZM2.75 1.5C2.05964 1.5 1.5 2.05964 1.5 2.75C1.5 3.44036 2.05964 4 2.75 4C3.44036 4 4 3.44036 4 2.75C4 2.05964 3.44036 1.5 2.75 1.5Z" fill="var(--fill-0, #1A1B1D)"/>
<path fill-rule="evenodd" clip-rule="evenodd" d="M7 2.75C7 1.23122 8.23122 0 9.75 0C11.2688 0 12.5 1.23122 12.5 2.75C12.5 4.26878 11.2688 5.5 9.75 5.5C8.23122 5.5 7 4.26878 7 2.75ZM9.75 1.5C9.05964 1.5 8.5 2.05964 8.5 2.75C8.5 3.44036 9.05964 4 9.75 4C10.4404 4 11 3.44036 11 2.75C11 2.05964 10.4404 1.5 9.75 1.5Z" fill="var(--fill-0, #1A1B1D)"/>
<path fill-rule="evenodd" clip-rule="evenodd" d="M16.75 0C15.2312 0 14 1.23122 14 2.75C14 4.26878 15.2312 5.5 16.75 5.5C18.2688 5.5 19.5 4.26878 19.5 2.75C19.5 1.23122 18.2688 0 16.75 0ZM15.5 2.75C15.5 2.05964 16.0596 1.5 16.75 1.5C17.4404 1.5 18 2.05964 18 2.75C18 3.44036 17.4404 4 16.75 4C16.0596 4 15.5 3.44036 15.5 2.75Z" fill="var(--fill-0, #1A1B1D)"/>
</g>
</svg>
