<svg preserveAspectRatio="none" width="100%" height="100%" overflow="visible" style="display: block;" viewBox="0 0 26.4326 26.4326" fill="none" xmlns="http://www.w3.org/2000/svg">
<g id="Group">
<g id="Vector">
</g>
<path id="Vector_2" d="M13.2168 2.20286C19.2996 2.20286 24.2304 7.13364 24.2304 13.2164C24.2304 19.2992 19.2996 24.23 13.2168 24.23C7.13405 24.23 2.20327 19.2992 2.20327 13.2164C2.20327 7.13364 7.13405 2.20286 13.2168 2.20286ZM13.2168 4.40558C10.8801 4.40558 8.63898 5.33386 6.98662 6.98622C5.33427 8.63857 4.40599 10.8796 4.40599 13.2164C4.40599 15.5532 5.33427 17.7943 6.98662 19.4466C8.63898 21.099 10.8801 22.0273 13.2168 22.0273C15.5536 22.0273 17.7947 21.099 19.4471 19.4466C21.0994 17.7943 22.0277 15.5532 22.0277 13.2164C22.0277 10.8796 21.0994 8.63857 19.4471 6.98622C17.7947 5.33386 15.5536 4.40558 13.2168 4.40558ZM13.7675 14.3178C14.0482 14.3181 14.3182 14.4256 14.5224 14.6183C14.7265 14.811 14.8493 15.0744 14.8658 15.3546C14.8822 15.6348 14.791 15.9108 14.6109 16.126C14.4307 16.3413 14.1751 16.4796 13.8964 16.5128L13.7675 16.5205H10.0295L9.11208 18.1604C8.97601 18.4078 8.7501 18.5936 8.48103 18.6792C8.21195 18.7648 7.92026 18.7438 7.66622 18.6205C7.41218 18.4973 7.21519 18.2811 7.11595 18.0168C7.0167 17.7524 7.02279 17.46 7.13294 17.2L7.19021 17.0833L7.5052 16.5216H6.93911C6.65668 16.5238 6.38419 16.4175 6.17795 16.2245C5.97171 16.0316 5.84748 15.7667 5.83093 15.4848C5.81439 15.2028 5.9068 14.9253 6.08906 14.7096C6.27132 14.4938 6.5295 14.3563 6.81025 14.3255L6.93911 14.3178H13.7675ZM15.8524 11.0269L17.695 14.3178H19.4946C19.7867 14.3178 20.0668 14.4338 20.2733 14.6404C20.4799 14.8469 20.5959 15.127 20.5959 15.4191C20.5959 15.7112 20.4799 15.9914 20.2733 16.1979C20.0668 16.4045 19.7867 16.5205 19.4946 16.5205H18.9285L19.2446 17.0844C19.3836 17.339 19.4166 17.6382 19.3363 17.9169C19.2561 18.1957 19.0691 18.4315 18.816 18.5732C18.5629 18.715 18.2641 18.7511 17.9845 18.6738C17.7049 18.5965 17.4671 18.412 17.3227 18.1604L13.9305 12.103C13.7915 11.8484 13.7585 11.5492 13.8388 11.2704C13.919 10.9917 14.106 10.7558 14.3591 10.6141C14.6122 10.4724 14.911 10.4363 15.1906 10.5136C15.4702 10.5908 15.708 10.7753 15.8524 11.0269ZM13.077 6.07083L13.2168 6.32084L13.3567 6.07083C13.4994 5.81583 13.7375 5.62795 14.0188 5.54854C14.3 5.46912 14.6012 5.50467 14.8562 5.64736C15.1112 5.79005 15.2991 6.02819 15.3785 6.3094C15.4579 6.59061 15.4224 6.89185 15.2797 7.14685L11.8875 13.2043C11.7431 13.4559 11.5053 13.6404 11.2257 13.7177C10.9461 13.795 10.6473 13.7589 10.3942 13.6171C10.1411 13.4754 9.95411 13.2396 9.87387 12.9608C9.79363 12.6821 9.8266 12.3829 9.96563 12.1283L11.9547 8.57531L11.1551 7.14685C11.0826 7.02056 11.0359 6.88115 11.0177 6.73668C10.9994 6.59222 11.01 6.44557 11.0488 6.30523C11.0876 6.16488 11.1539 6.03362 11.2437 5.91904C11.3336 5.80446 11.4453 5.70884 11.5723 5.63771C11.6994 5.56657 11.8393 5.52134 11.9839 5.50462C12.1286 5.4879 12.2751 5.50003 12.415 5.54031C12.5549 5.58059 12.6855 5.64822 12.7991 5.73928C12.9127 5.83034 13.0072 5.94303 13.077 6.07083Z" fill="var(--fill-0, #9979E6)"/>
</g>
</svg>
